<svg width="32" height="32" viewBox="0 0 32 32" fill="none" xmlns="http://www.w3.org/2000/svg">
<path fill-rule="evenodd" clip-rule="evenodd" d="M14.6637 14.6047L7.79005 21.562C1.23519 16.8421 0.0588317 8.71303 5.55591 4.20311C10.6972 -0.0149214 19.4835 0.0446135 26.0814 3.7245C26.8209 4.13697 28.3045 5.04032 29.3456 6.0353C25.6528 5.39276 24.1461 5.51201 18.5769 10.9195L6.27633 9.47204L3.88802 10.9195L14.6637 14.6047Z" fill="#07A9EB"/>
<path fill-rule="evenodd" clip-rule="evenodd" d="M21.0989 13.878L24.2604 11.4336C30.6761 16.341 31.3181 23.8561 25.693 28.2053C20.0679 32.5545 8.47758 32.1907 2 24.5161C2 24.5161 2.56662 24.7443 3.24454 25.0175C4.64805 25.583 6.24619 25.3618 7.44326 24.4362C10.6317 21.971 16.6454 17.3213 16.6454 17.3213L17.8535 28.9158L19.8222 26.935L21.0989 13.878Z" fill="#07A9EB"/>
</svg>
